<?xml version="1.0" encoding="utf-8" ?>
<svg xmlns="http://www.w3.org/2000/svg" xmlns:xlink="http://www.w3.org/1999/xlink" width="96" height="16" viewBox="0 0 96 16">
	<defs>
		<clipPath id="clipPath3825881568">
			<path d="M0 0L16 0L16 16L0 16L0 0Z" fill-rule="nonzero" transform="matrix(1 0 0 1 0 0)"/>
		</clipPath>
	</defs>
	<g clip-path="url(#clipPath3825881568)">
		<defs>
			<clipPath id="clipPath0394161284">
				<path d="M0 0L16 0L16 16L0 16L0 0Z" fill-rule="nonzero" transform="matrix(1 0 0 1 -0 -0)"/>
			</clipPath>
		</defs>
		<g clip-path="url(#clipPath0394161284)">
			<path d="M11.8118 14.0005C11.7592 14.0007 11.7078 13.9928 11.6577 13.9768C11.6076 13.9608 11.5612 13.9374 11.5184 13.9067L7.49934 10.993L3.48027 13.9067C3.39218 13.9706 3.29372 14.0024 3.18489 14.002C3.07607 14.0016 2.97784 13.9691 2.89021 13.9046C2.80258 13.84 2.74244 13.7559 2.70977 13.6521C2.6771 13.5483 2.67821 13.4448 2.71309 13.3417L4.28059 8.69891L0.218087 5.91298C0.127779 5.85112 0.0645991 5.76851 0.0285472 5.66515C-0.00750464 5.56179 -0.00940947 5.45781 0.0228328 5.3532C0.055075 5.24859 0.115187 5.16373 0.203169 5.0986C0.291151 5.03347 0.389874 5.00076 0.499337 5.00048L5.51121 5.00048L7.02371 0.34579C7.05713 0.242708 7.11767 0.159306 7.20532 0.0955837C7.29297 0.0318612 7.39097 0 7.49934 0C7.6077 0 7.70571 0.0318612 7.79336 0.0955837C7.88101 0.159306 7.94154 0.242708 7.97496 0.34579L9.48746 5.00204L14.4993 5.00204C14.6089 5.00199 14.7079 5.03446 14.7961 5.09947C14.8844 5.16447 14.9447 5.24933 14.9772 5.35402C15.0096 5.45871 15.0078 5.56282 14.9718 5.66634C14.9358 5.76986 14.8726 5.8526 14.7821 5.91454L10.7181 8.69891L12.2846 13.3405C12.3393 13.5024 12.3169 13.6528 12.2174 13.7917C12.1179 13.9306 11.9827 14.0002 11.8118 14.0005Z" fill-rule="nonzero" transform="matrix(1 0 0 1 0.500663 0.999523)" fill="rgb(250, 204, 21)"/>
		</g>
	</g>
	<defs>
		<clipPath id="clipPath6975527928">
			<path d="M0 0L16 0L16 16L0 16L0 0Z" fill-rule="nonzero" transform="matrix(1 0 0 1 20 0)"/>
		</clipPath>
	</defs>
	<g clip-path="url(#clipPath6975527928)">
		<defs>
			<clipPath id="clipPath0250305590">
				<path d="M0 0L16 0L16 16L0 16L0 0Z" fill-rule="nonzero" transform="matrix(1 0 0 1 20 0)"/>
			</clipPath>
		</defs>
		<g clip-path="url(#clipPath0250305590)">
			<path d="M11.8118 14.0005C11.7592 14.0007 11.7078 13.9928 11.6577 13.9768C11.6076 13.9608 11.5612 13.9374 11.5184 13.9067L7.49934 10.993L3.48027 13.9067C3.39218 13.9706 3.29372 14.0024 3.18489 14.002C3.07607 14.0016 2.97784 13.9691 2.89021 13.9046C2.80258 13.84 2.74244 13.7559 2.70977 13.6521C2.6771 13.5483 2.67821 13.4448 2.71309 13.3417L4.28059 8.69891L0.218087 5.91298C0.127779 5.85112 0.0645991 5.76851 0.0285472 5.66515C-0.00750464 5.56179 -0.00940947 5.45781 0.0228328 5.3532C0.055075 5.24859 0.115187 5.16373 0.203169 5.0986C0.291151 5.03347 0.389874 5.00076 0.499337 5.00048L5.51121 5.00048L7.02371 0.34579C7.05713 0.242708 7.11767 0.159306 7.20532 0.0955837C7.29297 0.0318612 7.39097 0 7.49934 0C7.6077 0 7.70571 0.0318612 7.79336 0.0955837C7.88101 0.159306 7.94154 0.242708 7.97496 0.34579L9.48746 5.00204L14.4993 5.00204C14.6089 5.00199 14.7079 5.03446 14.7961 5.09947C14.8844 5.16447 14.9447 5.24933 14.9772 5.35402C15.0096 5.45871 15.0078 5.56282 14.9718 5.66634C14.9358 5.76986 14.8726 5.8526 14.7821 5.91454L10.7181 8.69891L12.2846 13.3405C12.3393 13.5024 12.3169 13.6528 12.2174 13.7917C12.1179 13.9306 11.9827 14.0002 11.8118 14.0005Z" fill-rule="nonzero" transform="matrix(1 0 0 1 20.5007 0.999523)" fill="rgb(250, 204, 21)"/>
		</g>
	</g>
	<defs>
		<clipPath id="clipPath9190003808">
			<path d="M0 0L16 0L16 16L0 16L0 0Z" fill-rule="nonzero" transform="matrix(1 0 0 1 40 0)"/>
		</clipPath>
	</defs>
	<g clip-path="url(#clipPath9190003808)">
		<defs>
			<clipPath id="clipPath4740386208">
				<path d="M0 0L16 0L16 16L0 16L0 0Z" fill-rule="nonzero" transform="matrix(1 0 0 1 40 0)"/>
			</clipPath>
		</defs>
		<g clip-path="url(#clipPath4740386208)">
			<path d="M11.8118 14.0005C11.7592 14.0007 11.7078 13.9928 11.6577 13.9768C11.6076 13.9608 11.5612 13.9374 11.5184 13.9067L7.49934 10.993L3.48027 13.9067C3.39218 13.9706 3.29372 14.0024 3.18489 14.002C3.07607 14.0016 2.97784 13.9691 2.89021 13.9046C2.80258 13.84 2.74244 13.7559 2.70977 13.6521C2.6771 13.5483 2.67821 13.4448 2.71309 13.3417L4.28059 8.69891L0.218087 5.91298C0.127779 5.85112 0.0645991 5.76851 0.0285472 5.66515C-0.00750464 5.56179 -0.00940947 5.45781 0.0228328 5.3532C0.055075 5.24859 0.115187 5.16373 0.203169 5.0986C0.291151 5.03347 0.389874 5.00076 0.499337 5.00048L5.51121 5.00048L7.02371 0.34579C7.05713 0.242708 7.11767 0.159306 7.20532 0.0955837C7.29297 0.0318612 7.39097 0 7.49934 0C7.6077 0 7.70571 0.0318612 7.79336 0.0955837C7.88101 0.159306 7.94154 0.242708 7.97496 0.34579L9.48746 5.00204L14.4993 5.00204C14.6089 5.00199 14.7079 5.03446 14.7961 5.09947C14.8844 5.16447 14.9447 5.24933 14.9772 5.35402C15.0096 5.45871 15.0078 5.56282 14.9718 5.66634C14.9358 5.76986 14.8726 5.8526 14.7821 5.91454L10.7181 8.69891L12.2846 13.3405C12.3393 13.5024 12.3169 13.6528 12.2174 13.7917C12.1179 13.9306 11.9827 14.0002 11.8118 14.0005Z" fill-rule="nonzero" transform="matrix(1 0 0 1 40.5007 0.999523)" fill="rgb(250, 204, 21)"/>
		</g>
	</g>
	<defs>
		<clipPath id="clipPath2463256838">
			<path d="M0 0L16 0L16 16L0 16L0 0Z" fill-rule="nonzero" transform="matrix(1 0 0 1 60 0)"/>
		</clipPath>
	</defs>
	<g clip-path="url(#clipPath2463256838)">
		<defs>
			<clipPath id="clipPath8931856292">
				<path d="M0 0L16 0L16 16L0 16L0 0Z" fill-rule="nonzero" transform="matrix(1 0 0 1 60 0)"/>
			</clipPath>
		</defs>
		<g clip-path="url(#clipPath8931856292)">
			<path d="M11.8118 14.0005C11.7592 14.0007 11.7078 13.9928 11.6577 13.9768C11.6076 13.9608 11.5612 13.9374 11.5184 13.9067L7.49934 10.993L3.48027 13.9067C3.39218 13.9706 3.29372 14.0024 3.18489 14.002C3.07607 14.0016 2.97784 13.9691 2.89021 13.9046C2.80258 13.84 2.74244 13.7559 2.70977 13.6521C2.6771 13.5483 2.67821 13.4448 2.71309 13.3417L4.28059 8.69891L0.218087 5.91298C0.127779 5.85112 0.0645991 5.76851 0.0285472 5.66515C-0.00750464 5.56179 -0.00940947 5.45781 0.0228328 5.3532C0.055075 5.24859 0.115187 5.16373 0.203169 5.0986C0.291151 5.03347 0.389874 5.00076 0.499337 5.00048L5.51121 5.00048L7.02371 0.34579C7.05713 0.242708 7.11767 0.159306 7.20532 0.0955837C7.29297 0.0318612 7.39097 0 7.49934 0C7.6077 0 7.70571 0.0318612 7.79336 0.0955837C7.88101 0.159306 7.94154 0.242708 7.97496 0.34579L9.48746 5.00204L14.4993 5.00204C14.6089 5.00199 14.7079 5.03446 14.7961 5.09947C14.8844 5.16447 14.9447 5.24933 14.9772 5.35402C15.0096 5.45871 15.0078 5.56282 14.9718 5.66634C14.9358 5.76986 14.8726 5.8526 14.7821 5.91454L10.7181 8.69891L12.2846 13.3405C12.3393 13.5024 12.3169 13.6528 12.2174 13.7917C12.1179 13.9306 11.9827 14.0002 11.8118 14.0005Z" fill-rule="nonzero" transform="matrix(1 0 0 1 60.5007 0.999523)" fill="rgb(250, 204, 21)"/>
		</g>
	</g>
	<defs>
		<clipPath id="clipPath9397454439">
			<path d="M0 0L16 0L16 16L0 16L0 0Z" fill-rule="nonzero" transform="matrix(1 0 0 1 80 0)"/>
		</clipPath>
	</defs>
	<g clip-path="url(#clipPath9397454439)">
		<defs>
			<clipPath id="clipPath7778711057">
				<path d="M0 0L16 0L16 16L0 16L0 0Z" fill-rule="nonzero" transform="matrix(1 0 0 1 80 0)"/>
			</clipPath>
		</defs>
		<g clip-path="url(#clipPath7778711057)">
			<path d="M11.8118 14.0005C11.7592 14.0007 11.7078 13.9928 11.6577 13.9768C11.6076 13.9608 11.5612 13.9374 11.5184 13.9067L7.49934 10.993L3.48027 13.9067C3.39218 13.9706 3.29372 14.0024 3.18489 14.002C3.07607 14.0016 2.97784 13.9691 2.89021 13.9046C2.80258 13.84 2.74244 13.7559 2.70977 13.6521C2.6771 13.5483 2.67821 13.4448 2.71309 13.3417L4.28059 8.69891L0.218087 5.91298C0.127779 5.85112 0.0645991 5.76851 0.0285472 5.66515C-0.00750464 5.56179 -0.00940947 5.45781 0.0228328 5.3532C0.055075 5.24859 0.115187 5.16373 0.203169 5.0986C0.291151 5.03347 0.389874 5.00076 0.499337 5.00048L5.51121 5.00048L7.02371 0.34579C7.05713 0.242708 7.11767 0.159306 7.20532 0.0955837C7.29297 0.0318612 7.39097 0 7.49934 0C7.6077 0 7.70571 0.0318612 7.79336 0.0955837C7.88101 0.159306 7.94154 0.242708 7.97496 0.34579L9.48746 5.00204L14.4993 5.00204C14.6089 5.00199 14.7079 5.03446 14.7961 5.09947C14.8844 5.16447 14.9447 5.24933 14.9772 5.35402C15.0096 5.45871 15.0078 5.56282 14.9718 5.66634C14.9358 5.76986 14.8726 5.8526 14.7821 5.91454L10.7181 8.69891L12.2846 13.3405C12.3393 13.5024 12.3169 13.6528 12.2174 13.7917C12.1179 13.9306 11.9827 14.0002 11.8118 14.0005Z" fill-rule="nonzero" transform="matrix(1 0 0 1 80.5007 0.999523)" fill="rgb(229, 231, 235)"/>
		</g>
	</g>
</svg>
