<?xml version="1.0" encoding="iso-8859-1"?>
<!-- Uploaded to: SVG Repo, www.svgrepo.com, Generator: SVG Repo Mixer Tools -->
<svg fill="#000000" version="1.1" id="Layer_1" xmlns="http://www.w3.org/2000/svg" xmlns:xlink="http://www.w3.org/1999/xlink" 
	 width="17.6094" height="17.6094" viewBox="0 0 64 64" xml:space="preserve">
<g>
	<g>
		<path d="M55,0h-2c-2.757,0-5,2.243-5,5v5.131c-1.781-1.596-3.802-2.928-6-3.94V5c0-2.757-2.243-5-5-5H27c-2.757,0-5,2.243-5,5
			v1.191c-2.198,1.012-4.219,2.343-6,3.94V5c0-2.757-2.243-5-5-5H9C6.243,0,4,2.243,4,5v44c0,0.266,0.105,0.519,0.293,0.707
			L8,53.414V59c0,2.757,2.243,5,5,5h38c2.757,0,5-2.243,5-5v-5.586l3.707-3.707C59.894,49.519,60,49.266,60,49V5
			C60,2.243,57.757,0,55,0z M24,5c0-1.654,1.346-3,3-3h10c1.654,0,3,1.346,3,3v0.376C37.496,4.488,34.805,4,32,4
			s-5.496,0.488-8,1.376V5z M8,28v1v21.586l-2-2V5c0-1.654,1.346-3,3-3h2c1.654,0,3,1.346,3,3v7h0.131C10.322,16.25,8,21.858,8,28z
			 M54,59c0,1.654-1.346,3-3,3H13c-1.654,0-3-1.346-3-3V30h44V59z M10,28c0-12.131,9.869-22,22-22s22,9.869,22,22H10z M58,48.586
			l-2,2V29v-1c0-6.142-2.322-11.75-6.131-16H50V5c0-1.654,1.346-3,3-3h2c1.654,0,3,1.346,3,3V48.586z"/>
	</g>
</g>
<g>
	<g>
		<path d="M46,34H18c-2.757,0-5,2.243-5,5v14c0,2.757,2.243,5,5,5h28c2.757,0,5-2.243,5-5V39C51,36.243,48.757,34,46,34z M49,53
			c0,1.654-1.346,3-3,3H18c-1.654,0-3-1.346-3-3V42h34V53z M49,40H15v-1c0-1.654,1.346-3,3-3h28c1.654,0,3,1.346,3,3V40z"/>
	</g>
</g>
<g>
	<g>
		<rect x="36" y="52" width="2" height="2"/>
	</g>
</g>
<g>
	<g>
		<rect x="40" y="52" width="2" height="2"/>
	</g>
</g>
<g>
	<g>
		<rect x="44" y="52" width="2" height="2"/>
	</g>
</g>
<g>
	<g>
		<path d="M40,14H24c-1.654,0-3,1.346-3,3s1.346,3,3,3h14v4h2v-4c1.654,0,3-1.346,3-3S41.654,14,40,14z M40,18H24
			c-0.552,0-1-0.448-1-1s0.448-1,1-1h16c0.552,0,1,0.448,1,1S40.552,18,40,18z"/>
	</g>
</g>
</svg>