<?xml version="1.0" encoding="utf-8" ?>
<svg xmlns="http://www.w3.org/2000/svg" xmlns:xlink="http://www.w3.org/1999/xlink" width="16" height="16" viewBox="0 0 16 16">
	<defs>
		<clipPath id="clipPath3462638998">
			<path d="M0 0L16 0L16 16L0 16L0 0Z" fill-rule="nonzero" transform="matrix(1 0 0 1 0 0)"/>
		</clipPath>
	</defs>
	<g clip-path="url(#clipPath3462638998)">
		<defs>
			<clipPath id="clipPath5753220878">
				<path d="M0 0L16 0L16 16L0 16L0 0Z" fill-rule="nonzero" transform="matrix(1 0 0 1 -0 -0)"/>
			</clipPath>
		</defs>
		<g clip-path="url(#clipPath5753220878)">
			<path d="M0.931907 -0.353553L12.4453 11.1599Q12.933 11.6476 12.933 12.3372Q12.933 13.0268 12.4454 13.5145Q11.9575 14.002 11.268 14.002Q10.5785 14.002 10.0908 13.5146L7.27523 10.6505Q7.06848 10.4406 6.95649 10.1676Q6.84451 9.89453 6.84429 9.59943L6.84429 9.42625Q6.84431 9.32583 6.80563 9.23326Q6.76694 9.1407 6.69554 9.07022L7.04679 8.71437L6.70759 9.08172L6.34446 8.7464Q6.25066 8.65985 6.12664 8.62889Q6.00263 8.59793 5.87897 8.63028Q5.35943 8.76588 4.8415 8.62538Q4.32357 8.48488 3.94398 8.10554L1.27415 5.43541Q0.639734 4.80099 0.202237 4.01955Q-0.227046 3.25279 -0.398296 2.46868Q-0.577784 1.64684 -0.442731 0.94383Q-0.29179 0.158116 0.226494 -0.355239Q0.261375 -0.389788 0.30231 -0.416893Q0.343244 -0.443997 0.388669 -0.462622Q0.434094 -0.481248 0.482274 -0.490682Q0.530454 -0.500116 0.579549 -0.499999Q0.628643 -0.499881 0.676778 -0.490217Q0.724912 -0.480553 0.770247 -0.461711Q0.815583 -0.442869 0.856387 -0.415569Q0.897192 -0.388269 0.931907 -0.353553ZM0.224801 0.353553L0.578354 0L0.930215 0.355239Q0.631855 0.65076 0.539312 1.13249Q0.442975 1.63396 0.578676 2.25531Q0.718184 2.89409 1.07479 3.53104Q1.44469 4.19173 1.9813 4.72834L4.65085 7.3982Q4.84221 7.58943 5.1033 7.66026Q5.36439 7.73108 5.62586 7.66284Q5.99683 7.56578 6.36888 7.65867Q6.74092 7.75156 7.02287 8.01172L7.386 8.34703Q7.39212 8.35268 7.39804 8.35853Q7.61224 8.56997 7.72829 8.84767Q7.84435 9.12537 7.84429 9.42625L7.84429 9.5987Q7.84436 9.69706 7.88169 9.78807Q7.91902 9.87908 7.98835 9.94948L10.7977 12.8073Q10.9926 13.002 11.268 13.002Q11.5435 13.002 11.7382 12.8074Q11.933 12.6126 11.933 12.3372Q11.933 12.0617 11.7382 11.867L0.224801 0.353553Z" fill-rule="nonzero" transform="matrix(1 0 0 1 1.21821 1.49188)" fill="rgb(156, 163, 175)"/>
			<path d="M11.8533 -0.353553C11.658 -0.548814 11.3414 -0.548814 11.1462 -0.353553L8.73212 2.06051Q8.38044 2.41211 8.19008 2.8716Q7.99973 3.33108 7.99973 3.82844L7.99973 4.29281L7.64618 4.64645C7.45092 4.84171 7.45092 5.15829 7.64618 5.35355C7.84144 5.54881 8.15803 5.54881 8.35329 5.35355L8.70661 5.00023Q8.8474 4.85954 8.92358 4.67566Q8.99976 4.49178 8.99973 4.29281L8.99973 3.82844Q8.99973 3.53002 9.11395 3.25433Q9.22816 2.97864 9.43922 2.76762L11.8533 0.353553C12.0485 0.158293 12.0485 -0.158293 11.8533 -0.353553ZM12.3962 0.896447C12.5914 0.701186 12.908 0.701186 13.1033 0.896447C13.2985 1.09171 13.2985 1.40829 13.1033 1.60355L10.6033 4.10355C10.408 4.29881 10.0914 4.29881 9.89618 4.10355C9.70092 3.90829 9.70092 3.59171 9.89618 3.39645L12.3962 0.896447ZM13.6462 2.14645C13.8414 1.95119 14.158 1.95119 14.3533 2.14645C14.5485 2.34171 14.5485 2.65829 14.3533 2.85355L11.9393 5.26758Q11.5876 5.6193 11.1281 5.80965Q10.6686 6 10.1713 6L9.70672 6.00012L9.35329 6.35355C9.15803 6.54881 8.84144 6.54881 8.64618 6.35355C8.45092 6.15829 8.45092 5.84171 8.64618 5.64645L8.99962 5.29301Q9.1402 5.15234 9.32408 5.07615Q9.50796 4.99997 9.707 5L10.1713 5Q10.4697 5 10.7454 4.88579Q11.0211 4.77158 11.2321 4.56055L13.6462 2.14645ZM3.35446 8.89763C3.15985 8.70172 2.84327 8.70066 2.64736 8.89527L0.0123758 11.5128Q-0.5 12.0253 -0.5 12.75Q-0.5 13.4747 0.012482 13.9874Q0.525014 14.4997 1.24973 14.4997Q1.97445 14.4997 2.48802 13.9863L5.60427 10.8526C5.79899 10.6568 5.7981 10.3402 5.60229 10.1455C5.40649 9.95074 5.0899 9.95163 4.89519 10.1474L1.77894 13.2812Q1.56033 13.4997 1.24973 13.4997Q0.93914 13.4997 0.719484 13.2801Q0.5 13.0606 0.5 12.75Q0.5 12.4394 0.71959 12.2197L3.35211 9.60473C3.54802 9.41012 3.54907 9.09354 3.35446 8.89763Z" fill-rule="evenodd" transform="matrix(1 0 0 1 1.00027 1)" fill="rgb(156, 163, 175)"/>
		</g>
	</g>
</svg>
