<?xml version="1.0" encoding="utf-8" ?>
<svg xmlns="http://www.w3.org/2000/svg" xmlns:xlink="http://www.w3.org/1999/xlink" width="16" height="14.2222" viewBox="0 0 16 14.2222">
	<defs>
		<clipPath id="clipPath3220515495">
			<path d="M0 0L16 0L16 14.2222L0 14.2222L0 0Z" fill-rule="nonzero" transform="matrix(1 0 0 1 0 -2.71201e-05)"/>
		</clipPath>
	</defs>
	<g clip-path="url(#clipPath3220515495)">
		<defs>
			<clipPath id="clipPath1132222096">
				<path d="M0 0L16 0L16 14.2222L0 14.2222L0 0Z" fill-rule="nonzero" transform="matrix(1 0 0 1 0 -2.71201e-05)"/>
			</clipPath>
		</defs>
		<g clip-path="url(#clipPath1132222096)">
			<path d="M15.7847 3.95074C14.9781 3.95395 12.0345 4.10284 9.84473 6.00012C8.92473 6.73173 8.36251 7.56309 8.00001 8.34235C7.63751 7.56309 7.07529 6.73173 6.15529 6.00012C3.96556 4.10284 1.02195 3.95395 0.215288 3.95074C0.0927875 3.95025 -0.00110135 4.03469 9.75989e-06 4.14383C0.00639865 4.83321 0.198343 7.2584 2.46584 9.06481C4.79973 11.0851 7.11112 11.0619 8.00001 11.0619C8.8889 11.0619 11.1997 11.0853 13.5342 9.06481C15.802 7.25815 15.9936 4.83321 16 4.14383C16.0011 4.03469 15.9072 3.95025 15.7847 3.95074ZM7.99945 6.68161C8.35557 6.21617 8.76612 5.79815 9.22418 5.4342C9.75445 4.97469 10.3236 4.61198 10.8981 4.31864C10.4414 2.5779 9.4614 1.03346 8.21112 0.0662963C8.09696 -0.0220988 7.90501 -0.0220988 7.79057 0.0662963C6.54084 1.03272 5.56084 2.57568 5.10334 4.31494C5.66918 4.60383 6.22834 4.96037 6.74834 5.41099C6.98501 5.59948 7.20799 5.8 7.41727 6.01255C7.62656 6.2251 7.82062 6.44812 7.99945 6.68161Z" fill-rule="nonzero" transform="matrix(1 0 0 1 -1.52588e-05 1.58005)" fill="rgb(156, 163, 175)"/>
		</g>
	</g>
</svg>
