<?xml version="1.0" encoding="utf-8" ?>
<svg xmlns="http://www.w3.org/2000/svg" xmlns:xlink="http://www.w3.org/1999/xlink" width="24" height="24" viewBox="0 0 24 24">
	<defs>
		<clipPath id="clipPath8592105255">
			<path d="M0 0L24 0L24 24L0 24L0 0Z" fill-rule="nonzero" transform="matrix(1 0 0 1 0 0)"/>
		</clipPath>
	</defs>
	<g clip-path="url(#clipPath8592105255)">
		<defs>
			<clipPath id="clipPath8749988561">
				<path d="M0 0L24 0L24 24L0 24L0 0Z" fill-rule="nonzero" transform="matrix(1 0 0 1 -0 -0)"/>
			</clipPath>
		</defs>
		<g clip-path="url(#clipPath8749988561)">
			<path d="M14.8748 1.74984C16.0816 1.75345 17.1116 2.18189 17.9648 3.03517C18.8181 3.88845 19.2466 4.91844 19.2502 6.12516L19.2502 14.8748C19.2466 16.0816 18.8181 17.1116 17.9648 17.9648C17.1115 18.8181 16.0816 19.2466 14.8748 19.2502L6.12516 19.2502C4.91844 19.2466 3.88845 18.8181 3.03517 17.9648C2.18189 17.1116 1.75345 16.0816 1.74984 14.8748L1.74984 6.12516C1.75345 4.91844 2.18189 3.88845 3.03517 3.03517C3.88845 2.18189 4.91844 1.75345 6.12516 1.74984L14.8748 1.74984ZM14.8748 0L6.12516 0C2.75625 0 0 2.75625 0 6.12516L0 14.8748C0 18.2438 2.75625 21 6.12516 21L14.8748 21C18.2438 21 21 18.2438 21 14.8748L21 6.12516C21 2.75625 18.2438 0 14.8748 0Z" fill-rule="nonzero" transform="matrix(1 0 0 1 1.5 1.5)" fill="rgb(255, 255, 255)"/>
			<path d="M10.9373 2.625C10.5749 2.625 10.2655 2.49686 10.0093 2.24058C9.75298 1.9843 9.62484 1.67494 9.62484 1.3125C9.62484 0.950063 9.75298 0.640704 10.0093 0.384422C10.2655 0.128141 10.5749 0 10.9373 0C11.2998 0 11.6091 0.128141 11.8654 0.384422C12.1217 0.640704 12.2498 0.950063 12.2498 1.3125C12.2506 1.67526 12.1228 1.98489 11.8662 2.2414C11.6097 2.49791 11.3001 2.62578 10.9373 2.625ZM5.25 3.49969C6.21654 3.49969 7.04154 3.84141 7.72498 4.52486C8.40843 5.20831 8.75016 6.0333 8.75016 6.99984C8.75016 7.96638 8.40843 8.79138 7.72498 9.47483C7.04154 10.1583 6.21654 10.5 5.25 10.5C4.28346 10.5 3.45846 10.1583 2.77501 9.47483C2.09157 8.79138 1.74984 7.96638 1.74984 6.99984C1.75088 6.03373 2.09297 5.2091 2.77611 4.52596C3.45926 3.84281 4.28389 3.50072 5.25 3.49969ZM5.25 1.74984C3.80025 1.74984 2.56281 2.26241 1.53769 3.28753C0.512563 4.31266 0 5.5501 0 6.99984C0 8.44959 0.512563 9.68703 1.53769 10.7122C2.56281 11.7373 3.80025 12.2498 5.25 12.2498C6.69975 12.2498 7.93718 11.7373 8.96231 10.7122C9.98744 9.68703 10.5 8.44959 10.5 6.99984C10.5 5.5501 9.98744 4.31266 8.96231 3.28753C7.93718 2.26241 6.69975 1.74984 5.25 1.74984Z" fill-rule="nonzero" transform="matrix(1 0 0 1 6.75 5.00016)" fill="rgb(255, 255, 255)"/>
		</g>
	</g>
</svg>
