<?xml version="1.0" encoding="utf-8" ?>
<svg xmlns="http://www.w3.org/2000/svg" xmlns:xlink="http://www.w3.org/1999/xlink" width="17.6094" height="17.6094" viewBox="0 0 17.6094 17.6094">
	<defs>
		<clipPath id="clipPath5423154122">
			<path d="M0 0L17.6094 0L17.6094 17.6094L0 17.6094L0 0Z" fill-rule="nonzero" transform="matrix(1 0 0 1 -0 -0)"/>
		</clipPath>
	</defs>
	<g clip-path="url(#clipPath5423154122)">
		<path d="M4.95264 0.550294Q4.04013 0.550294 3.20916 0.844909Q2.41395 1.12684 1.80436 1.63754Q1.20555 2.13922 0.880523 2.78263Q0.550294 3.43633 0.550294 4.14867Q0.550294 5.69729 2.26824 8.42869Q3.3797 10.1958 4.93534 12.0462Q4.93763 12.0489 4.93003 12.0455L4.92879 12.0447Q4.93769 12.0465 4.95264 12.0465Q4.9676 12.0465 4.9765 12.0447L4.97526 12.0455Q4.96766 12.0489 4.96703 12.0497Q6.52566 10.1965 7.63706 8.42969Q9.35499 5.69865 9.35499 4.14867Q9.35499 3.43633 9.02477 2.78262Q8.69974 2.13922 8.10092 1.63754Q7.49133 1.12684 6.69613 0.844909Q5.86516 0.550294 4.95265 0.550294L4.95264 0.550294ZM4.95265 -0.550293Q6.05449 -0.550293 7.0639 -0.192411Q8.04607 0.155808 8.80771 0.793896Q9.58003 1.44093 10.0071 2.28637Q10.4556 3.17412 10.4556 4.14867Q10.4556 6.01602 8.56866 9.0157Q7.41682 10.8468 5.81529 12.7509Q5.48776 13.1471 4.95264 13.1471Q4.41753 13.1471 4.09292 12.7544Q2.48846 10.846 1.33661 9.01466Q-0.550294 6.01463 -0.550294 4.14867Q-0.550294 3.17412 -0.101835 2.28637Q0.325253 1.44093 1.09758 0.793896Q1.85922 0.155809 2.84138 -0.192411Q3.8508 -0.550294 4.95264 -0.550294L4.95265 -0.550293Z" fill-rule="nonzero" transform="matrix(1 0 0 1 3.85205 2.50598)" fill="rgb(156, 163, 175)"/>
		<path d="M1.65088 -0.550294Q2.54243 -0.550294 3.18188 0.0127178Q3.49432 0.287808 3.66806 0.649478Q3.85206 1.0325 3.85206 1.45355Q3.85206 1.87459 3.66806 2.25762Q3.49431 2.61929 3.18188 2.89438Q2.54243 3.45739 1.65088 3.45739Q0.759329 3.45739 0.119883 2.89438Q-0.192552 2.61929 -0.366293 2.25762Q-0.550294 1.87459 -0.550294 1.45355Q-0.550294 1.0325 -0.366293 0.649478Q-0.192553 0.287808 0.119883 0.0127178Q0.759329 -0.550294 1.65088 -0.550294L1.65088 -0.550294ZM1.65088 0.550294Q1.1748 0.550294 0.84718 0.838752Q0.550294 1.10015 0.550294 1.45355Q0.550294 1.80695 0.84718 2.06835Q1.1748 2.35681 1.65088 2.35681Q2.12696 2.35681 2.45458 2.06835Q2.75147 1.80695 2.75147 1.45355Q2.75147 1.10015 2.45458 0.838752Q2.12696 0.550294 1.65088 0.550294L1.65088 0.550294Z" fill-rule="nonzero" transform="matrix(1 0 0 1 7.15381 5.41308)" fill="rgb(156, 163, 175)"/>
	</g>
</svg>
