<?xml version="1.0" encoding="utf-8" ?>
<svg xmlns="http://www.w3.org/2000/svg" xmlns:xlink="http://www.w3.org/1999/xlink" width="16" height="16" viewBox="0 0 16 16">
	<defs>
		<clipPath id="clipPath5779955440">
			<path d="M0 0L16 0L16 16L0 16L0 0Z" fill-rule="nonzero" transform="matrix(1 0 0 1 -0 -0)"/>
		</clipPath>
	</defs>
	<g clip-path="url(#clipPath5779955440)">
		<path d="M4.5 0.5Q3.68176 0.5 2.93554 0.800484Q2.21674 1.08993 1.66302 1.6168Q1.11198 2.14112 0.810608 2.81869Q0.5 3.51703 0.5 4.28125Q0.5 5.9139 2.0751 8.75816Q3.08738 10.5861 4.50344 12.4991Q4.50366 12.4994 4.5 12.4994Q4.49634 12.4994 4.49419 12.5023Q5.91268 10.5868 6.92491 8.75919Q8.5 5.91529 8.5 4.28125Q8.5 3.51703 8.18939 2.81869Q7.88802 2.14112 7.33698 1.6168Q6.78326 1.08993 6.06446 0.800484Q5.31824 0.5 4.5 0.5ZM4.5 -0.5Q5.51202 -0.5 6.43799 -0.127134Q7.33411 0.233712 8.0263 0.892344Q8.72108 1.55343 9.10309 2.4123Q9.5 3.30467 9.5 4.28125Q9.5 6.17373 7.7997 9.2437Q6.75553 11.129 5.30269 13.0908Q5.00531 13.4994 4.5 13.4994Q3.99469 13.4994 3.69969 13.094Q2.24446 11.1281 1.20029 9.24262Q-0.5 6.1723 -0.5 4.28125Q-0.5 3.30467 -0.103089 2.4123Q0.278916 1.55344 0.973697 0.892344Q1.66589 0.233712 2.56201 -0.127134Q3.48798 -0.5 4.5 -0.5Z" fill-rule="nonzero" transform="matrix(1 0 0 1 3.5 1.5)" fill="rgb(75, 85, 99)"/>
		<path d="M1.5 -0.5Q2.32843 -0.5 2.91421 0.0857864Q3.5 0.671573 3.5 1.5Q3.5 2.32843 2.91421 2.91421Q2.32843 3.5 1.5 3.5Q0.671573 3.5 0.0857865 2.91421Q-0.5 2.32843 -0.5 1.5Q-0.5 0.671573 0.0857864 0.0857865Q0.671573 -0.5 1.5 -0.5L1.5 -0.5ZM1.5 0.5Q1.08579 0.5 0.792893 0.792893Q0.5 1.08579 0.5 1.5Q0.5 1.91421 0.792893 2.20711Q1.08579 2.5 1.5 2.5Q1.91421 2.5 2.20711 2.20711Q2.5 1.91421 2.5 1.5Q2.5 1.08579 2.20711 0.792893Q1.91421 0.5 1.5 0.5L1.5 0.5Z" fill-rule="nonzero" transform="matrix(1 0 0 1 6.5 4.5)" fill="rgb(75, 85, 99)"/>
	</g>
</svg>
