<?xml version="1.0" encoding="utf-8" ?>
<svg xmlns="http://www.w3.org/2000/svg" xmlns:xlink="http://www.w3.org/1999/xlink" width="16" height="12.8" viewBox="0 0 16 12.8">
	<defs>
		<clipPath id="clipPath6105383430">
			<path d="M0 0L16 0L16 12.8L0 12.8L0 0Z" fill-rule="nonzero" transform="matrix(1 0 0 1 0 -9.76324e-05)"/>
		</clipPath>
	</defs>
	<g clip-path="url(#clipPath6105383430)">
		<defs>
			<clipPath id="clipPath9131075810">
				<path d="M0 0L16 0L16 12.8L0 12.8L0 0Z" fill-rule="nonzero" transform="matrix(1 0 0 1 0 -9.76324e-05)"/>
			</clipPath>
		</defs>
		<g clip-path="url(#clipPath9131075810)">
			<path d="M15.6 7.68L15.2 7.68C14.549 7.68 14.055 7.5116 13.7977 7.322C13.5752 7.1578 13.3063 7.04 13.0035 7.04L12.596 7.04C12.2933 7.04 12.0242 7.1578 11.8017 7.322C11.545 7.5116 11.051 7.68 10.4 7.68C9.749 7.68 9.255 7.5116 8.99775 7.322C8.77525 7.1578 8.50625 7.04 8.2035 7.04L7.796 7.04C7.49325 7.04 7.22425 7.1578 7.00175 7.322C6.745 7.5116 6.251 7.68 5.6 7.68C4.949 7.68 4.455 7.5116 4.19775 7.322C3.97525 7.1578 3.70625 7.04 3.4035 7.04L2.996 7.04C2.69325 7.04 2.42425 7.1578 2.20175 7.322C1.945 7.5116 1.451 7.68 0.8 7.68L0.4 7.68C0.179 7.68 0 7.8232 0 8L0 8.64C0 8.8168 0.179 8.96 0.4 8.96L0.8 8.96C1.7655 8.96 2.618 8.7162 3.2 8.3232C3.782 8.7164 4.6345 8.96 5.6 8.96C6.5655 8.96 7.418 8.7162 8 8.3232C8.582 8.7164 9.4345 8.96 10.4 8.96C11.3655 8.96 12.218 8.7162 12.8 8.3232C13.382 8.7164 14.2345 8.96 15.2 8.96L15.6 8.96C15.821 8.96 16 8.8168 16 8.64L16 8C16 7.8232 15.821 7.68 15.6 7.68ZM5.6 7.04L5.6 5.12L10.4 5.12L10.4 7.04C10.878 7.04 11.1715 6.9168 11.2598 6.8516C11.489 6.6824 11.7398 6.5648 12 6.4902L12 1.92C12 1.5672 12.359 1.28 12.8 1.28C13.241 1.28 13.6 1.5672 13.6 1.92L13.6 2.24C13.6 2.4168 13.779 2.56 14 2.56L14.8 2.56C15.021 2.56 15.2 2.4168 15.2 2.24L15.2 1.92C15.2 0.8612 14.1235 0 12.8 0C11.4765 0 10.4 0.8612 10.4 1.92L10.4 3.84L5.6 3.84L5.6 1.92C5.6 1.5672 5.959 1.28 6.4 1.28C6.841 1.28 7.2 1.5672 7.2 1.92L7.2 2.24C7.2 2.4168 7.379 2.56 7.6 2.56L8.4 2.56C8.621 2.56 8.8 2.4168 8.8 2.24L8.8 1.92C8.8 0.8612 7.7235 0 6.4 0C5.0765 0 4 0.8612 4 1.92L4 6.49C4.26025 6.5646 4.511 6.6824 4.74025 6.8514C4.8285 6.9168 5.122 7.04 5.6 7.04Z" fill-rule="nonzero" transform="matrix(1 0 0 1 0 1.91992)" fill="rgb(156, 163, 175)"/>
		</g>
	</g>
</svg>
