<?xml version="1.0" encoding="utf-8" ?>
<svg xmlns="http://www.w3.org/2000/svg" xmlns:xlink="http://www.w3.org/1999/xlink" width="16" height="16" viewBox="0 0 16 16">
	<defs>
		<clipPath id="clipPath5475445531">
			<path d="M0 0L16 0L16 16L0 16L0 0Z" fill-rule="nonzero" transform="matrix(1 0 0 1 0 0)"/>
		</clipPath>
	</defs>
	<g clip-path="url(#clipPath5475445531)">
		<defs>
			<clipPath id="clipPath4811826317">
				<path d="M0 0L16 0L16 16L0 16L0 0Z" fill-rule="nonzero" transform="matrix(1 0 0 1 -0 -0)"/>
			</clipPath>
		</defs>
		<g clip-path="url(#clipPath4811826317)">
			<path d="M5.99125 0.5Q9.23162 0.5 11.6497 2.65709C11.8557 2.84092 12.1718 2.82289 12.3556 2.61683C12.5394 2.41077 12.5214 2.09469 12.3153 1.91087Q9.61284 -0.5 5.99125 -0.5Q2.36967 -0.5 -0.332847 1.91087C-0.53891 2.09469 -0.556937 2.41077 -0.373112 2.61683C-0.189287 2.82289 0.126785 2.84092 0.332847 2.65709Q2.75089 0.5 5.99125 0.5ZM9.94538 4.75638Q8.27631 3.19568 5.99125 3.19568Q3.70618 3.19568 2.03713 4.75638C1.83543 4.94498 1.51902 4.93437 1.33041 4.73267C1.14181 4.53097 1.15243 4.21456 1.35413 4.02596Q3.31148 2.19569 5.99125 2.19568Q8.67102 2.19568 10.6284 4.02596C10.8301 4.21456 10.8407 4.53097 10.6521 4.73267C10.4635 4.93437 10.1471 4.94498 9.94538 4.75638ZM5.99156 5.89128Q7.16777 5.89128 8.04689 6.67269C8.25328 6.85615 8.56932 6.83755 8.75277 6.63115C8.93623 6.42476 8.91763 6.10872 8.71124 5.92527Q7.54795 4.89128 5.99156 4.89128Q4.43517 4.89128 3.27189 5.92527C3.0655 6.10872 3.0469 6.42476 3.23035 6.63115C3.4138 6.83755 3.72984 6.85615 3.93624 6.67269Q4.81536 5.89128 5.99156 5.89128Z" fill-rule="evenodd" transform="matrix(1 0 0 1 2.00875 3.40696)" fill="rgb(156, 163, 175)"/>
			<path d="M1 2C0.723857 2 0.488155 1.90237 0.292893 1.70711C0.0976306 1.51184 -3.17891e-07 1.27614 0 1C-3.17891e-07 0.723857 0.0976305 0.488155 0.292892 0.292892C0.488155 0.0976308 0.723857 0 1 0C1.27614 0 1.51184 0.0976308 1.70711 0.292892C1.90237 0.488155 2 0.723857 2 1C2 1.27614 1.90237 1.51184 1.70711 1.70711C1.51184 1.90237 1.27614 2 1 2Z" fill-rule="nonzero" transform="matrix(1 0 0 1 7 11)" fill="rgb(156, 163, 175)"/>
		</g>
	</g>
</svg>
